<svg xmlns="http://www.w3.org/2000/svg" viewBox="0 0 64 64" fill="none">
  <rect width="64" height="64" rx="18" fill="#2B1D1D"/>
  <ellipse cx="32" cy="18" rx="16" ry="7" fill="#FF6B6B"/>
  <path d="M16 18v18c0 3.9 7.2 7 16 7s16-3.1 16-7V18" fill="#D94848"/>
  <path d="M16 27c0 3.9 7.2 7 16 7s16-3.1 16-7" stroke="#FFC0C0" stroke-width="2"/>
  <path d="M16 36c0 3.9 7.2 7 16 7s16-3.1 16-7" stroke="#FFC0C0" stroke-width="2"/>
  <path d="M24 14c3 2.8 4.7 6.9 4.7 11.3S27 33.8 24 36.6" stroke="#FFF5F5" stroke-width="2.5" stroke-linecap="round"/>
  <path d="M40 14c-3 2.8-4.7 6.9-4.7 11.3S37 33.8 40 36.6" stroke="#FFF5F5" stroke-width="2.5" stroke-linecap="round"/>
</svg>
