<svg xmlns="http://www.w3.org/2000/svg" viewBox="0 0 64 64" fill="none">
  <rect width="64" height="64" rx="18" fill="#182330"/>
  <path d="M18 32c0-11.4 7.7-20 18-20s18 8.6 18 20-7.7 20-18 20S18 43.4 18 32Z" fill="#336791"/>
  <path d="M25 26c0-4.6 3.1-8 7-8s7 3.4 7 8v3.5c0 4.6-3.1 8-7 8-1.4 0-2.7-.4-3.8-1v8.5l-3.2 1.5V26Z" fill="#F7FBFF"/>
  <circle cx="35.5" cy="28.5" r="1.7" fill="#336791"/>
  <path d="M39 35.8c2.8 0 5.4-.8 7.6-2.3" stroke="#F7FBFF" stroke-width="2.5" stroke-linecap="round"/>
</svg>
